<svg width="66" height="72" viewBox="0 0 66 72" fill="none" xmlns="http://www.w3.org/2000/svg">
<g opacity="0.2" filter="url(#filter0_f_72_314)">
<path d="M27.8401 20.9051C27.2406 20.8195 27.2121 20.791 27.4976 20.7624C28.0399 20.6768 29.296 20.791 30.181 20.9908C32.2363 21.4761 34.0919 22.7321 36.0616 24.9303L36.5755 25.5297L37.3177 25.4156C40.4864 24.9017 43.7407 25.3014 46.4527 26.5574C47.1949 26.9 48.3653 27.5851 48.508 27.7564C48.5651 27.8135 48.6508 28.1846 48.7079 28.5557C48.9077 29.8974 48.8221 30.8966 48.3939 31.6673C48.1655 32.0955 48.1655 32.2097 48.3082 32.5808C48.4224 32.8663 48.765 33.0661 49.079 33.0661C49.7641 33.0661 50.4778 31.9813 50.8203 30.4683L50.9631 29.8689L51.22 30.1543C52.6759 31.7815 53.8178 34.0367 53.9891 35.6353L54.0461 36.0635L53.7892 35.6924C53.361 35.0358 52.9614 34.6076 52.419 34.2365C51.4484 33.58 50.4207 33.3801 47.7087 33.2374C45.2537 33.0947 43.8549 32.8948 42.4847 32.4381C40.1438 31.6673 38.9448 30.6682 36.1758 26.9856C34.9483 25.3585 34.1775 24.4735 33.4068 23.7313C31.7225 22.1041 30.0382 21.2477 27.8401 20.9051Z" fill="url(#paint0_linear_72_314)"/>
<path d="M49.1076 24.5307C49.1647 23.4459 49.3074 22.7322 49.6214 22.0756C49.7356 21.8187 49.8498 21.5903 49.8783 21.5903C49.9069 21.5903 49.8498 21.7902 49.7641 22.0185C49.5358 22.6466 49.5072 23.5315 49.65 24.5307C49.8498 25.8153 49.9354 25.9866 51.3057 27.3853C51.9337 28.0419 52.6759 28.8698 52.9614 29.2123L53.4467 29.8404L52.9614 29.3836C52.3619 28.8127 50.9917 27.7279 50.6776 27.5852C50.4778 27.471 50.4493 27.471 50.3065 27.6137C50.1923 27.7279 50.1638 27.8992 50.1638 28.727C50.1353 30.0117 49.964 30.811 49.5358 31.6388C49.3074 32.067 49.2788 31.9814 49.4787 31.4961C49.6214 31.125 49.65 30.9537 49.65 29.7262C49.65 27.2426 49.3645 26.6431 47.6231 25.644C47.1949 25.3871 46.4527 25.016 46.0245 24.8161C45.5678 24.6163 45.2252 24.445 45.2537 24.445C45.3108 24.3879 46.9951 24.8732 47.6517 25.1587C48.6508 25.5583 48.8221 25.5869 48.9363 25.5583C49.0219 25.4727 49.079 25.2443 49.1076 24.5307Z" fill="url(#paint1_linear_72_314)"/>
<path d="M29.0106 28.7842C27.8116 27.1285 27.0408 24.5592 27.2121 22.6466L27.2692 22.0471L27.5547 22.1042C28.0685 22.1899 28.9535 22.5324 29.3817 22.7893C30.5235 23.4745 31.0374 24.4165 31.5227 26.7574C31.6654 27.4425 31.8653 28.2418 31.9509 28.4987C32.0936 28.9269 32.636 29.9261 33.0928 30.5541C33.4068 31.0108 33.207 31.2392 32.4933 31.1821C31.4085 31.0679 29.9526 30.0688 29.0106 28.7842Z" fill="url(#paint2_linear_72_314)"/>
<path d="M47.6517 41.2021C41.9994 38.9183 40.0011 36.9486 40.0011 33.6086C40.0011 33.1233 40.0296 32.7236 40.0296 32.7236C40.0582 32.7236 40.258 32.8949 40.5149 33.0947C41.6568 34.0082 42.9414 34.4079 46.5098 34.9217C48.5937 35.2358 49.7927 35.4641 50.8775 35.8352C54.3316 36.9771 56.4726 39.318 56.9865 42.4867C57.1292 43.4002 57.0436 45.1415 56.8152 46.055C56.6154 46.7687 56.0444 48.0818 55.9017 48.1104C55.8732 48.1104 55.8161 47.9677 55.8161 47.7393C55.759 46.5403 55.1595 45.3984 54.1603 44.5135C52.9614 43.4858 51.4198 42.715 47.6517 41.2021Z" fill="url(#paint3_linear_72_314)"/>
<path d="M43.6551 42.144C43.598 41.7158 43.4553 41.1734 43.3697 40.945L43.2269 40.5168L43.4838 40.8309C43.855 41.2591 44.1404 41.7729 44.3973 42.4866C44.5972 43.029 44.5972 43.2003 44.5972 44.0852C44.5972 44.9416 44.5686 45.1414 44.3973 45.6267C44.1119 46.3975 43.7693 46.9399 43.1984 47.5394C42.1707 48.5956 40.829 49.1665 38.9163 49.4235C38.5738 49.452 37.6032 49.5377 36.7468 49.5948C34.6058 49.7089 33.1784 49.9373 31.8938 50.3941C31.7225 50.4512 31.5513 50.5082 31.5227 50.4797C31.4656 50.4226 32.3506 49.9088 33.0642 49.5662C34.0634 49.0809 35.0911 48.824 37.3463 48.4243C38.4596 48.253 39.6015 48.0247 39.8869 47.9105C42.7131 47.0255 44.1119 44.8274 43.6551 42.144Z" fill="url(#paint4_linear_72_314)"/>
<path d="M46.2529 46.7401C45.5107 45.113 45.3394 43.5714 45.7391 42.1155C45.7961 41.9728 45.8532 41.8301 45.9103 41.8301C45.9674 41.8301 46.1387 41.9157 46.31 42.0299C46.6526 42.2583 47.3662 42.6579 49.1932 43.6571C51.5055 44.9131 52.8187 45.8837 53.7322 46.9971C54.5315 47.9677 55.0168 49.081 55.2452 50.4512C55.3879 51.222 55.3023 53.0775 55.1024 53.8483C54.4744 56.2748 53.0471 58.216 50.9631 59.3293C50.6491 59.5006 50.3922 59.6148 50.3636 59.6148C50.3351 59.6148 50.4493 59.3293 50.6206 58.9867C51.3057 57.5309 51.3913 56.1321 50.8775 54.562C50.5635 53.5914 49.9069 52.421 48.5937 50.4512C47.0237 48.1675 46.6526 47.568 46.2529 46.7401Z" fill="url(#paint5_linear_72_314)"/>
<path d="M24.9854 55.4754C27.0979 53.7055 29.6956 52.4495 32.0936 52.0498C33.1213 51.8785 34.8341 51.9356 35.7761 52.1925C37.2891 52.5922 38.6594 53.4486 39.373 54.5048C40.0582 55.5325 40.3722 56.4175 40.6862 58.3872C40.8004 59.158 40.9431 59.9573 40.9717 60.1286C41.2 61.1563 41.6568 61.9556 42.2277 62.3838C43.1127 63.0404 44.6542 63.0689 46.1672 62.498C46.4241 62.4123 46.6525 62.3267 46.6525 62.3552C46.7096 62.4123 45.9388 62.9262 45.425 63.1831C44.7113 63.5542 44.1404 63.6684 43.3696 63.6684C41.9993 63.6684 40.8289 62.9547 39.8869 61.5274C39.687 61.2419 39.2874 60.414 38.9448 59.6433C37.9457 57.331 37.4318 56.6459 36.2614 55.8751C35.2337 55.2185 33.9206 55.0758 32.9214 55.5611C31.6083 56.1891 31.2657 57.8734 32.1792 58.9011C32.5503 59.3293 33.2355 59.6718 33.8064 59.7575C34.8626 59.9002 35.7761 59.0723 35.7761 58.0161C35.7761 57.331 35.5192 56.9313 34.8341 56.6173C33.9206 56.2177 32.9214 56.6744 32.95 57.5594C32.95 57.9305 33.1213 58.1588 33.4924 58.3301C33.7208 58.4443 33.7208 58.4443 33.5495 58.4158C32.7216 58.2445 32.5218 57.2168 33.1784 56.5602C33.9777 55.7609 35.6619 56.1035 36.2329 57.2168C36.4612 57.6735 36.4898 58.587 36.29 59.158C35.8047 60.414 34.4344 61.0706 33.0356 60.6995C32.0936 60.4426 31.6939 60.1857 30.552 59.0152C28.5538 56.9599 27.783 56.5602 24.9283 56.132L24.3859 56.0464L24.9854 55.4754Z" fill="url(#paint6_linear_72_314)"/>
<path fill-rule="evenodd" clip-rule="evenodd" d="M9.96979 9.54368C16.6212 17.6224 26.8695 30.1831 27.3834 30.8682C27.8116 31.4391 27.6403 31.9815 26.9266 32.3812C26.527 32.6095 25.6991 32.8379 25.2995 32.8379C24.8427 32.8379 24.3003 32.6095 23.9292 32.2384C23.6723 31.9815 22.559 30.3543 20.0468 26.4434C18.1342 23.446 16.507 20.9624 16.4785 20.9339C16.3643 20.8768 16.3643 20.8768 19.847 27.1C22.0451 31.0109 22.7588 32.4097 22.7588 32.581C22.7588 32.9521 22.6446 33.1519 22.1878 33.6658C21.4171 34.5222 21.0745 35.4928 20.8176 37.5196C20.5321 39.7748 19.7614 41.3734 17.5633 44.0854C16.2786 45.684 16.0788 45.9695 15.7648 46.6261C15.3651 47.4254 15.251 47.8821 15.1939 48.9098C15.1368 49.9946 15.251 50.6797 15.565 51.7074C15.8504 52.6209 16.1645 53.2204 16.9352 54.3908C17.5918 55.4185 17.9915 56.1893 17.9915 56.4747C17.9915 56.7031 18.0486 56.7031 19.0762 56.4747C21.5313 55.9038 23.5581 54.9332 24.6714 53.7342C25.3565 52.992 25.5278 52.5924 25.5278 51.5647C25.5278 50.9081 25.4993 50.7654 25.328 50.3657C25.0425 49.7377 24.5001 49.2238 23.3297 48.4245C21.7882 47.3683 21.1316 46.5119 20.9603 45.37C20.8176 44.3994 20.9889 43.7428 21.8453 41.9444C22.7302 40.0888 22.9586 39.3181 23.1013 37.434C23.187 36.235 23.3297 35.7497 23.6723 35.3786C24.0434 34.9789 24.3574 34.8362 25.2424 34.722C26.6983 34.5222 27.6403 34.1511 28.3825 33.4374C29.0391 32.8379 29.3246 32.2384 29.3531 31.3535L29.3817 30.6969L29.0105 30.2972C27.6688 28.7557 9.08484 8.31616 8.99919 8.31616C8.97065 8.31616 9.4274 8.85855 9.96979 9.54368ZM18.7337 50.1373C19.0477 49.5949 18.8764 48.9098 18.3626 48.5672C17.8773 48.2532 17.1351 48.396 17.1351 48.8242C17.1351 48.9384 17.1921 49.0525 17.3634 49.1096C17.6203 49.2524 17.6489 49.3951 17.4491 49.7091C17.2492 50.0231 17.2492 50.3086 17.5062 50.5084C17.9058 50.8224 18.4482 50.6512 18.7337 50.1373Z" fill="url(#paint7_linear_72_314)"/>
<path fill-rule="evenodd" clip-rule="evenodd" d="M30.2952 35.1215C29.61 35.3214 28.9535 36.0636 28.7536 36.8058C28.6394 37.2626 28.6965 38.0904 28.8964 38.3473C29.2104 38.747 29.4959 38.8612 30.2952 38.8612C31.8652 38.8612 33.2069 38.1761 33.3497 37.3482C33.4924 36.6631 32.8929 35.721 32.0651 35.2928C31.6369 35.0644 30.7519 34.9788 30.2952 35.1215ZM32.1222 36.5489C32.3505 36.2063 32.2649 35.8352 31.8367 35.5783C31.0659 35.093 29.8955 35.4926 29.8955 36.2349C29.8955 36.606 30.495 37.0056 31.0659 37.0056C31.437 37.0056 31.9509 36.7773 32.1222 36.5489Z" fill="url(#paint8_linear_72_314)"/>
</g>
<path d="M27.8401 20.9051C27.2406 20.8195 27.2121 20.791 27.4976 20.7624C28.0399 20.6768 29.296 20.791 30.181 20.9908C32.2363 21.4761 34.0919 22.7321 36.0616 24.9303L36.5755 25.5297L37.3177 25.4156C40.4864 24.9017 43.7407 25.3014 46.4527 26.5574C47.1949 26.9 48.3653 27.5851 48.508 27.7564C48.5651 27.8135 48.6508 28.1846 48.7079 28.5557C48.9077 29.8974 48.8221 30.8966 48.3939 31.6673C48.1655 32.0955 48.1655 32.2097 48.3082 32.5808C48.4224 32.8663 48.765 33.0661 49.079 33.0661C49.7641 33.0661 50.4778 31.9813 50.8203 30.4683L50.9631 29.8689L51.22 30.1543C52.6759 31.7815 53.8178 34.0367 53.9891 35.6353L54.0461 36.0635L53.7892 35.6924C53.361 35.0358 52.9614 34.6076 52.419 34.2365C51.4484 33.58 50.4207 33.3801 47.7087 33.2374C45.2537 33.0947 43.8549 32.8948 42.4847 32.4381C40.1438 31.6673 38.9448 30.6682 36.1758 26.9856C34.9483 25.3585 34.1775 24.4735 33.4068 23.7313C31.7225 22.1041 30.0382 21.2477 27.8401 20.9051Z" fill="url(#paint9_linear_72_314)"/>
<path d="M49.1076 24.5307C49.1647 23.4459 49.3074 22.7322 49.6214 22.0756C49.7356 21.8187 49.8498 21.5903 49.8783 21.5903C49.9069 21.5903 49.8498 21.7902 49.7641 22.0185C49.5358 22.6466 49.5072 23.5315 49.65 24.5307C49.8498 25.8153 49.9354 25.9866 51.3057 27.3853C51.9337 28.0419 52.6759 28.8698 52.9614 29.2123L53.4467 29.8404L52.9614 29.3836C52.3619 28.8127 50.9917 27.7279 50.6776 27.5852C50.4778 27.471 50.4493 27.471 50.3065 27.6137C50.1923 27.7279 50.1638 27.8992 50.1638 28.727C50.1353 30.0117 49.964 30.811 49.5358 31.6388C49.3074 32.067 49.2788 31.9814 49.4787 31.4961C49.6214 31.125 49.65 30.9537 49.65 29.7262C49.65 27.2426 49.3645 26.6431 47.6231 25.644C47.1949 25.3871 46.4527 25.016 46.0245 24.8161C45.5678 24.6163 45.2252 24.445 45.2537 24.445C45.3108 24.3879 46.9951 24.8732 47.6517 25.1587C48.6508 25.5583 48.8221 25.5869 48.9363 25.5583C49.0219 25.4727 49.079 25.2443 49.1076 24.5307Z" fill="url(#paint10_linear_72_314)"/>
<path d="M29.0106 28.7842C27.8116 27.1285 27.0408 24.5592 27.2121 22.6466L27.2692 22.0471L27.5547 22.1042C28.0685 22.1899 28.9535 22.5324 29.3817 22.7893C30.5235 23.4745 31.0374 24.4165 31.5227 26.7574C31.6654 27.4425 31.8653 28.2418 31.9509 28.4987C32.0936 28.9269 32.636 29.9261 33.0928 30.5541C33.4068 31.0108 33.207 31.2392 32.4933 31.1821C31.4085 31.0679 29.9526 30.0688 29.0106 28.7842Z" fill="url(#paint11_linear_72_314)"/>
<path d="M47.6517 41.2021C41.9994 38.9183 40.0011 36.9486 40.0011 33.6086C40.0011 33.1233 40.0296 32.7236 40.0296 32.7236C40.0582 32.7236 40.258 32.8949 40.5149 33.0947C41.6568 34.0082 42.9414 34.4079 46.5098 34.9217C48.5937 35.2358 49.7927 35.4641 50.8775 35.8352C54.3316 36.9771 56.4726 39.318 56.9865 42.4867C57.1292 43.4002 57.0436 45.1415 56.8152 46.055C56.6154 46.7687 56.0444 48.0818 55.9017 48.1104C55.8732 48.1104 55.8161 47.9677 55.8161 47.7393C55.759 46.5403 55.1595 45.3984 54.1603 44.5135C52.9614 43.4858 51.4198 42.715 47.6517 41.2021Z" fill="url(#paint12_linear_72_314)"/>
<path d="M43.6551 42.144C43.598 41.7158 43.4553 41.1734 43.3697 40.945L43.2269 40.5168L43.4838 40.8309C43.855 41.2591 44.1404 41.7729 44.3973 42.4866C44.5972 43.029 44.5972 43.2003 44.5972 44.0852C44.5972 44.9416 44.5686 45.1414 44.3973 45.6267C44.1119 46.3975 43.7693 46.9399 43.1984 47.5394C42.1707 48.5956 40.829 49.1665 38.9163 49.4235C38.5738 49.452 37.6032 49.5377 36.7468 49.5948C34.6058 49.7089 33.1784 49.9373 31.8938 50.3941C31.7225 50.4512 31.5513 50.5082 31.5227 50.4797C31.4656 50.4226 32.3506 49.9088 33.0642 49.5662C34.0634 49.0809 35.0911 48.824 37.3463 48.4243C38.4596 48.253 39.6015 48.0247 39.8869 47.9105C42.7131 47.0255 44.1119 44.8274 43.6551 42.144Z" fill="url(#paint13_linear_72_314)"/>
<path d="M46.2529 46.7401C45.5107 45.113 45.3394 43.5714 45.7391 42.1155C45.7961 41.9728 45.8532 41.8301 45.9103 41.8301C45.9674 41.8301 46.1387 41.9157 46.31 42.0299C46.6526 42.2583 47.3662 42.6579 49.1932 43.6571C51.5055 44.9131 52.8187 45.8837 53.7322 46.9971C54.5315 47.9677 55.0168 49.081 55.2452 50.4512C55.3879 51.222 55.3023 53.0775 55.1024 53.8483C54.4744 56.2748 53.0471 58.216 50.9631 59.3293C50.6491 59.5006 50.3922 59.6148 50.3636 59.6148C50.3351 59.6148 50.4493 59.3293 50.6206 58.9867C51.3057 57.5309 51.3913 56.1321 50.8775 54.562C50.5635 53.5914 49.9069 52.421 48.5937 50.4512C47.0237 48.1675 46.6526 47.568 46.2529 46.7401Z" fill="url(#paint14_linear_72_314)"/>
<path d="M24.9854 55.4754C27.0979 53.7055 29.6956 52.4495 32.0936 52.0498C33.1213 51.8785 34.8341 51.9356 35.7761 52.1925C37.2891 52.5922 38.6594 53.4486 39.373 54.5048C40.0582 55.5325 40.3722 56.4175 40.6862 58.3872C40.8004 59.158 40.9431 59.9573 40.9717 60.1286C41.2 61.1563 41.6568 61.9556 42.2277 62.3838C43.1127 63.0404 44.6542 63.0689 46.1672 62.498C46.4241 62.4123 46.6525 62.3267 46.6525 62.3552C46.7096 62.4123 45.9388 62.9262 45.425 63.1831C44.7113 63.5542 44.1404 63.6684 43.3696 63.6684C41.9993 63.6684 40.8289 62.9547 39.8869 61.5274C39.687 61.2419 39.2874 60.414 38.9448 59.6433C37.9457 57.331 37.4318 56.6459 36.2614 55.8751C35.2337 55.2185 33.9206 55.0758 32.9214 55.5611C31.6083 56.1891 31.2657 57.8734 32.1792 58.9011C32.5503 59.3293 33.2355 59.6718 33.8064 59.7575C34.8626 59.9002 35.7761 59.0723 35.7761 58.0161C35.7761 57.331 35.5192 56.9313 34.8341 56.6173C33.9206 56.2177 32.9214 56.6744 32.95 57.5594C32.95 57.9305 33.1213 58.1588 33.4924 58.3301C33.7208 58.4443 33.7208 58.4443 33.5495 58.4158C32.7216 58.2445 32.5218 57.2168 33.1784 56.5602C33.9777 55.7609 35.6619 56.1035 36.2329 57.2168C36.4612 57.6735 36.4898 58.587 36.29 59.158C35.8047 60.414 34.4344 61.0706 33.0356 60.6995C32.0936 60.4426 31.6939 60.1857 30.552 59.0152C28.5538 56.9599 27.783 56.5602 24.9283 56.132L24.3859 56.0464L24.9854 55.4754Z" fill="url(#paint15_linear_72_314)"/>
<path fill-rule="evenodd" clip-rule="evenodd" d="M9.96979 9.54368C16.6212 17.6224 26.8695 30.1831 27.3834 30.8682C27.8116 31.4391 27.6403 31.9815 26.9266 32.3812C26.527 32.6095 25.6991 32.8379 25.2995 32.8379C24.8427 32.8379 24.3003 32.6095 23.9292 32.2384C23.6723 31.9815 22.559 30.3543 20.0468 26.4434C18.1342 23.446 16.507 20.9624 16.4785 20.9339C16.3643 20.8768 16.3643 20.8768 19.847 27.1C22.0451 31.0109 22.7588 32.4097 22.7588 32.581C22.7588 32.9521 22.6446 33.1519 22.1878 33.6658C21.4171 34.5222 21.0745 35.4928 20.8176 37.5196C20.5321 39.7748 19.7614 41.3734 17.5633 44.0854C16.2786 45.684 16.0788 45.9695 15.7648 46.6261C15.3651 47.4254 15.251 47.8821 15.1939 48.9098C15.1368 49.9946 15.251 50.6797 15.565 51.7074C15.8504 52.6209 16.1645 53.2204 16.9352 54.3908C17.5918 55.4185 17.9915 56.1893 17.9915 56.4747C17.9915 56.7031 18.0486 56.7031 19.0762 56.4747C21.5313 55.9038 23.5581 54.9332 24.6714 53.7342C25.3565 52.992 25.5278 52.5924 25.5278 51.5647C25.5278 50.9081 25.4993 50.7654 25.328 50.3657C25.0425 49.7377 24.5001 49.2238 23.3297 48.4245C21.7882 47.3683 21.1316 46.5119 20.9603 45.37C20.8176 44.3994 20.9889 43.7428 21.8453 41.9444C22.7302 40.0888 22.9586 39.3181 23.1013 37.434C23.187 36.235 23.3297 35.7497 23.6723 35.3786C24.0434 34.9789 24.3574 34.8362 25.2424 34.722C26.6983 34.5222 27.6403 34.1511 28.3825 33.4374C29.0391 32.8379 29.3246 32.2384 29.3531 31.3535L29.3817 30.6969L29.0105 30.2972C27.6688 28.7557 9.08484 8.31616 8.99919 8.31616C8.97065 8.31616 9.4274 8.85855 9.96979 9.54368ZM18.7337 50.1373C19.0477 49.5949 18.8764 48.9098 18.3626 48.5672C17.8773 48.2532 17.1351 48.396 17.1351 48.8242C17.1351 48.9384 17.1921 49.0525 17.3634 49.1096C17.6203 49.2524 17.6489 49.3951 17.4491 49.7091C17.2492 50.0231 17.2492 50.3086 17.5062 50.5084C17.9058 50.8224 18.4482 50.6512 18.7337 50.1373Z" fill="url(#paint16_linear_72_314)"/>
<path fill-rule="evenodd" clip-rule="evenodd" d="M30.2952 35.1215C29.61 35.3214 28.9535 36.0636 28.7536 36.8058C28.6394 37.2626 28.6965 38.0904 28.8964 38.3473C29.2104 38.747 29.4959 38.8612 30.2952 38.8612C31.8652 38.8612 33.2069 38.1761 33.3497 37.3482C33.4924 36.6631 32.8929 35.721 32.0651 35.2928C31.6369 35.0644 30.7519 34.9788 30.2952 35.1215ZM32.1222 36.5489C32.3505 36.2063 32.2649 35.8352 31.8367 35.5783C31.0659 35.093 29.8955 35.4926 29.8955 36.2349C29.8955 36.606 30.495 37.0056 31.0659 37.0056C31.437 37.0056 31.9509 36.7773 32.1222 36.5489Z" fill="url(#paint17_linear_72_314)"/>
<defs>
<filter id="filter0_f_72_314" x="0.997925" y="0.316162" width="64.0583" height="71.3523" filterUnits="userSpaceOnUse" color-interpolation-filters="sRGB">
<feFlood flood-opacity="0" result="BackgroundImageFix"/>
<feBlend mode="normal" in="SourceGraphic" in2="BackgroundImageFix" result="shape"/>
<feGaussianBlur stdDeviation="4" result="effect1_foregroundBlur_72_314"/>
</filter>
<linearGradient id="paint0_linear_72_314" x1="25.2607" y1="24.2299" x2="56.6552" y2="27.8878" gradientUnits="userSpaceOnUse">
<stop stop-color="#4EFFD3"/>
<stop offset="1" stop-color="#57CA45"/>
</linearGradient>
<linearGradient id="paint1_linear_72_314" x1="44.62" y1="23.9452" x2="54.35" y2="24.4613" gradientUnits="userSpaceOnUse">
<stop stop-color="#4EFFD3"/>
<stop offset="1" stop-color="#57CA45"/>
</linearGradient>
<linearGradient id="paint2_linear_72_314" x1="26.7218" y1="24.1325" x2="33.9096" y2="24.4503" gradientUnits="userSpaceOnUse">
<stop stop-color="#4EFFD3"/>
<stop offset="1" stop-color="#57CA45"/>
</linearGradient>
<linearGradient id="paint3_linear_72_314" x1="38.6855" y1="36.2329" x2="58.8825" y2="37.7291" gradientUnits="userSpaceOnUse">
<stop stop-color="#4EFFD3"/>
<stop offset="1" stop-color="#57CA45"/>
</linearGradient>
<linearGradient id="paint4_linear_72_314" x1="30.5114" y1="42.7908" x2="45.9637" y2="44.1454" gradientUnits="userSpaceOnUse">
<stop stop-color="#4EFFD3"/>
<stop offset="1" stop-color="#57CA45"/>
</linearGradient>
<linearGradient id="paint5_linear_72_314" x1="44.7743" y1="45.8862" x2="56.4118" y2="46.3143" gradientUnits="userSpaceOnUse">
<stop stop-color="#4EFFD3"/>
<stop offset="1" stop-color="#57CA45"/>
</linearGradient>
<linearGradient id="paint6_linear_72_314" x1="22.6682" y1="54.6241" x2="48.7636" y2="57.9391" gradientUnits="userSpaceOnUse">
<stop stop-color="#4EFFD3"/>
<stop offset="1" stop-color="#57CA45"/>
</linearGradient>
<linearGradient id="paint7_linear_72_314" x1="7.42563" y1="19.3388" x2="31.6775" y2="20.0224" gradientUnits="userSpaceOnUse">
<stop stop-color="#4EFFD3"/>
<stop offset="1" stop-color="#57CA45"/>
</linearGradient>
<linearGradient id="paint8_linear_72_314" x1="28.3348" y1="35.9206" x2="33.8645" y2="36.3742" gradientUnits="userSpaceOnUse">
<stop stop-color="#4EFFD3"/>
<stop offset="1" stop-color="#57CA45"/>
</linearGradient>
<linearGradient id="paint9_linear_72_314" x1="25.2607" y1="24.2299" x2="56.6552" y2="27.8878" gradientUnits="userSpaceOnUse">
<stop stop-color="#4EFFD3"/>
<stop offset="1" stop-color="#57CA45"/>
</linearGradient>
<linearGradient id="paint10_linear_72_314" x1="44.62" y1="23.9452" x2="54.35" y2="24.4613" gradientUnits="userSpaceOnUse">
<stop stop-color="#4EFFD3"/>
<stop offset="1" stop-color="#57CA45"/>
</linearGradient>
<linearGradient id="paint11_linear_72_314" x1="26.7218" y1="24.1325" x2="33.9096" y2="24.4503" gradientUnits="userSpaceOnUse">
<stop stop-color="#4EFFD3"/>
<stop offset="1" stop-color="#57CA45"/>
</linearGradient>
<linearGradient id="paint12_linear_72_314" x1="38.6855" y1="36.2329" x2="58.8825" y2="37.7291" gradientUnits="userSpaceOnUse">
<stop stop-color="#4EFFD3"/>
<stop offset="1" stop-color="#57CA45"/>
</linearGradient>
<linearGradient id="paint13_linear_72_314" x1="30.5114" y1="42.7908" x2="45.9637" y2="44.1454" gradientUnits="userSpaceOnUse">
<stop stop-color="#4EFFD3"/>
<stop offset="1" stop-color="#57CA45"/>
</linearGradient>
<linearGradient id="paint14_linear_72_314" x1="44.7743" y1="45.8862" x2="56.4118" y2="46.3143" gradientUnits="userSpaceOnUse">
<stop stop-color="#4EFFD3"/>
<stop offset="1" stop-color="#57CA45"/>
</linearGradient>
<linearGradient id="paint15_linear_72_314" x1="22.6682" y1="54.6241" x2="48.7636" y2="57.9391" gradientUnits="userSpaceOnUse">
<stop stop-color="#4EFFD3"/>
<stop offset="1" stop-color="#57CA45"/>
</linearGradient>
<linearGradient id="paint16_linear_72_314" x1="7.42563" y1="19.3388" x2="31.6775" y2="20.0224" gradientUnits="userSpaceOnUse">
<stop stop-color="#4EFFD3"/>
<stop offset="1" stop-color="#57CA45"/>
</linearGradient>
<linearGradient id="paint17_linear_72_314" x1="28.3348" y1="35.9206" x2="33.8645" y2="36.3742" gradientUnits="userSpaceOnUse">
<stop stop-color="#4EFFD3"/>
<stop offset="1" stop-color="#57CA45"/>
</linearGradient>
</defs>
</svg>
