<svg width="69" height="69" viewBox="0 0 69 69" fill="none" xmlns="http://www.w3.org/2000/svg">
<g filter="url(#filter0_f_72_177)">
<path d="M18.5 40.5C12.975 40.5 8.5 44.975 8.5 50.5C8.5 52.375 9.025 54.15 9.95 55.65C11.675 58.55 14.85 60.5 18.5 60.5C22.15 60.5 25.325 58.55 27.05 55.65C27.975 54.15 28.5 52.375 28.5 50.5C28.5 44.975 24.025 40.5 18.5 40.5ZM22.225 52.325H20.375V54.275C20.375 55.3 19.525 56.15 18.5 56.15C17.475 56.15 16.625 55.3 16.625 54.275V52.325H14.775C13.75 52.325 12.9 51.475 12.9 50.45C12.9 49.425 13.75 48.575 14.775 48.575H16.625V46.8C16.625 45.775 17.475 44.925 18.5 44.925C19.525 44.925 20.375 45.775 20.375 46.8V48.575H22.225C23.25 48.575 24.1 49.425 24.1 50.45C24.1 51.475 23.275 52.325 22.225 52.325Z" fill="#4EFFD3" fill-opacity="0.2"/>
<path d="M59.75 34.25H53.5C50.75 34.25 48.5 36.5 48.5 39.25C48.5 42 50.75 44.25 53.5 44.25H59.75C60.45 44.25 61 43.7 61 43V35.5C61 34.8 60.45 34.25 59.75 34.25Z" fill="#4EFFD3" fill-opacity="0.2"/>
<path d="M47.325 16.4999C48.075 17.2249 47.45 18.3499 46.4 18.3499L25.7 18.3249C24.5 18.3249 23.9 16.8749 24.75 16.0249L29.125 11.6249C32.825 7.9499 38.8 7.9499 42.5 11.6249L47.225 16.3999C47.25 16.4249 47.3 16.4749 47.325 16.4999Z" fill="#4EFFD3" fill-opacity="0.2"/>
<path d="M60.675 49.65C59.15 54.8 54.75 58 48.75 58H32.5C31.525 58 30.9 56.925 31.3 56.025C32.05 54.275 32.525 52.3 32.525 50.5C32.525 42.925 26.35 36.75 18.775 36.75C16.875 36.75 15.025 37.15 13.325 37.9C12.4 38.3 11.275 37.675 11.275 36.675V33C11.275 26.2 15.375 21.45 21.75 20.65C22.375 20.55 23.05 20.5 23.75 20.5H48.75C49.4 20.5 50.025 20.525 50.625 20.625C55.675 21.2 59.325 24.275 60.675 28.85C60.925 29.675 60.325 30.5 59.475 30.5H53.75C48.325 30.5 44.025 35.45 45.2 41.075C46.025 45.175 49.825 48 54 48H59.475C60.35 48 60.925 48.85 60.675 49.65Z" fill="#4EFFD3" fill-opacity="0.2"/>
</g>
<path d="M18.5 40.5C12.975 40.5 8.5 44.975 8.5 50.5C8.5 52.375 9.025 54.15 9.95 55.65C11.675 58.55 14.85 60.5 18.5 60.5C22.15 60.5 25.325 58.55 27.05 55.65C27.975 54.15 28.5 52.375 28.5 50.5C28.5 44.975 24.025 40.5 18.5 40.5ZM22.225 52.325H20.375V54.275C20.375 55.3 19.525 56.15 18.5 56.15C17.475 56.15 16.625 55.3 16.625 54.275V52.325H14.775C13.75 52.325 12.9 51.475 12.9 50.45C12.9 49.425 13.75 48.575 14.775 48.575H16.625V46.8C16.625 45.775 17.475 44.925 18.5 44.925C19.525 44.925 20.375 45.775 20.375 46.8V48.575H22.225C23.25 48.575 24.1 49.425 24.1 50.45C24.1 51.475 23.275 52.325 22.225 52.325Z" fill="url(#paint0_linear_72_177)"/>
<path d="M59.75 34.25H53.5C50.75 34.25 48.5 36.5 48.5 39.25C48.5 42 50.75 44.25 53.5 44.25H59.75C60.45 44.25 61 43.7 61 43V35.5C61 34.8 60.45 34.25 59.75 34.25Z" fill="url(#paint1_linear_72_177)"/>
<path d="M47.325 16.4999C48.075 17.2249 47.45 18.3499 46.4 18.3499L25.7 18.3249C24.5 18.3249 23.9 16.8749 24.75 16.0249L29.125 11.6249C32.825 7.9499 38.8 7.9499 42.5 11.6249L47.225 16.3999C47.25 16.4249 47.3 16.4749 47.325 16.4999Z" fill="url(#paint2_linear_72_177)"/>
<path d="M60.675 49.65C59.15 54.8 54.75 58 48.75 58H32.5C31.525 58 30.9 56.925 31.3 56.025C32.05 54.275 32.525 52.3 32.525 50.5C32.525 42.925 26.35 36.75 18.775 36.75C16.875 36.75 15.025 37.15 13.325 37.9C12.4 38.3 11.275 37.675 11.275 36.675V33C11.275 26.2 15.375 21.45 21.75 20.65C22.375 20.55 23.05 20.5 23.75 20.5H48.75C49.4 20.5 50.025 20.525 50.625 20.625C55.675 21.2 59.325 24.275 60.675 28.85C60.925 29.675 60.325 30.5 59.475 30.5H53.75C48.325 30.5 44.025 35.45 45.2 41.075C46.025 45.175 49.825 48 54 48H59.475C60.35 48 60.925 48.85 60.675 49.65Z" fill="url(#paint3_linear_72_177)"/>
<defs>
<filter id="filter0_f_72_177" x="0.5" y="0.868652" width="68.5" height="67.6313" filterUnits="userSpaceOnUse" color-interpolation-filters="sRGB">
<feFlood flood-opacity="0" result="BackgroundImageFix"/>
<feBlend mode="normal" in="SourceGraphic" in2="BackgroundImageFix" result="shape"/>
<feGaussianBlur stdDeviation="4" result="effect1_foregroundBlur_72_177"/>
</filter>
<linearGradient id="paint0_linear_72_177" x1="6.9573" y1="45.0614" x2="30.6656" y2="46.646" gradientUnits="userSpaceOnUse">
<stop stop-color="#4EFFD3"/>
<stop offset="1" stop-color="#57CA45"/>
</linearGradient>
<linearGradient id="paint1_linear_72_177" x1="47.5358" y1="36.5307" x2="62.3165" y2="37.7655" gradientUnits="userSpaceOnUse">
<stop stop-color="#4EFFD3"/>
<stop offset="1" stop-color="#57CA45"/>
</linearGradient>
<linearGradient id="paint2_linear_72_177" x1="22.5541" y1="11.031" x2="49.5721" y2="15.4692" gradientUnits="userSpaceOnUse">
<stop stop-color="#4EFFD3"/>
<stop offset="1" stop-color="#57CA45"/>
</linearGradient>
<linearGradient id="paint3_linear_72_177" x1="7.46002" y1="29.0526" x2="65.8971" y2="34.2038" gradientUnits="userSpaceOnUse">
<stop stop-color="#4EFFD3"/>
<stop offset="1" stop-color="#57CA45"/>
</linearGradient>
</defs>
</svg>
